<?xml version="1.0" encoding="UTF-8" standalone="no"?>
<!DOCTYPE svg PUBLIC "-//W3C//DTD SVG 1.1//EN"
 "http://www.w3.org/Graphics/SVG/1.1/DTD/svg11.dtd">
<!-- Generated by graphviz version 2.38.0 (20140413.2041)
 -->
<!-- Title: controllers_diagram Pages: 1 -->
<svg width="1275pt" height="1086pt"
 viewBox="0.00 0.00 1274.54 1086.37" xmlns="http://www.w3.org/2000/svg" xmlns:xlink="http://www.w3.org/1999/xlink">
<g id="graph0" class="graph" transform="scale(1 1) rotate(0) translate(489.54 515.372)">
<title>controllers_diagram</title>
<polygon fill="none" stroke="none" points="-489.54,571 -489.54,-515.372 785,-515.372 785,571 -489.54,571"/>
<!-- _diagram_info -->
<g id="node1" class="node"><title>_diagram_info</title>
<text text-anchor="start" x="575" y="503.4" font-family="Times,serif" font-size="13.00">Controllers diagram</text>
<text text-anchor="start" x="575" y="517.4" font-family="Times,serif" font-size="13.00">Date: May 22 2018 &#45; 17:02</text>
<text text-anchor="start" x="575" y="531.4" font-family="Times,serif" font-size="13.00">Migration version: 20180522125157</text>
<text text-anchor="start" x="575" y="545.4" font-family="Times,serif" font-size="13.00">Generated by RailRoady 1.5.3</text>
<text text-anchor="start" x="575" y="559.4" font-family="Times,serif" font-size="13.00">http://railroady.prestonlee.com</text>
</g>
<!-- ApplicationController -->
<g id="node2" class="node"><title>ApplicationController</title>
<path fill="none" stroke="black" d="M-103.192,-84.6506C-103.192,-84.6506 8.80771,-84.6506 8.80771,-84.6506 14.8077,-84.6506 20.8077,-90.6506 20.8077,-96.6506 20.8077,-96.6506 20.8077,-166.651 20.8077,-166.651 20.8077,-172.651 14.8077,-178.651 8.80771,-178.651 8.80771,-178.651 -103.192,-178.651 -103.192,-178.651 -109.192,-178.651 -115.192,-172.651 -115.192,-166.651 -115.192,-166.651 -115.192,-96.6506 -115.192,-96.6506 -115.192,-90.6506 -109.192,-84.6506 -103.192,-84.6506"/>
<text text-anchor="middle" x="-47.1923" y="-163.451" font-family="Times,serif" font-size="14.00">ApplicationController</text>
<polyline fill="none" stroke="black" points="-115.192,-155.651 20.8077,-155.651 "/>
<polyline fill="none" stroke="black" points="-115.192,-131.651 20.8077,-131.651 "/>
<polyline fill="none" stroke="black" points="-115.192,-107.651 20.8077,-107.651 "/>
<text text-anchor="start" x="-107.192" y="-92.4506" font-family="Times,serif" font-size="14.00">_layout</text>
</g>
<!-- PromotionFormsController -->
<g id="node3" class="node"><title>PromotionFormsController</title>
<path fill="none" stroke="black" d="M-66.0101,-327.872C-66.0101,-327.872 74.9899,-327.872 74.9899,-327.872 80.9899,-327.872 86.9899,-333.872 86.9899,-339.872 86.9899,-339.872 86.9899,-498.872 86.9899,-498.872 86.9899,-504.872 80.9899,-510.872 74.9899,-510.872 74.9899,-510.872 -66.0101,-510.872 -66.0101,-510.872 -72.0101,-510.872 -78.0101,-504.872 -78.0101,-498.872 -78.0101,-498.872 -78.0101,-339.872 -78.0101,-339.872 -78.0101,-333.872 -72.0101,-327.872 -66.0101,-327.872"/>
<text text-anchor="middle" x="4.48995" y="-495.672" font-family="Times,serif" font-size="14.00">PromotionFormsController</text>
<polyline fill="none" stroke="black" points="-78.0101,-487.872 86.9899,-487.872 "/>
<text text-anchor="start" x="-70.0101" y="-472.672" font-family="Times,serif" font-size="14.00">create</text>
<text text-anchor="start" x="-70.0101" y="-457.672" font-family="Times,serif" font-size="14.00">destroy</text>
<text text-anchor="start" x="-70.0101" y="-442.672" font-family="Times,serif" font-size="14.00">edit</text>
<text text-anchor="start" x="-70.0101" y="-427.672" font-family="Times,serif" font-size="14.00">new</text>
<text text-anchor="start" x="-70.0101" y="-412.672" font-family="Times,serif" font-size="14.00">update</text>
<polyline fill="none" stroke="black" points="-78.0101,-404.872 86.9899,-404.872 "/>
<polyline fill="none" stroke="black" points="-78.0101,-380.872 86.9899,-380.872 "/>
<text text-anchor="start" x="-70.0101" y="-365.672" font-family="Times,serif" font-size="14.00">_layout</text>
<text text-anchor="start" x="-70.0101" y="-350.672" font-family="Times,serif" font-size="14.00">promform_params</text>
<text text-anchor="start" x="-70.0101" y="-335.672" font-family="Times,serif" font-size="14.00">set_user_and_fix</text>
</g>
<!-- ApplicationController&#45;&gt;PromotionFormsController -->
<g id="edge1" class="edge"><title>ApplicationController&#45;&gt;PromotionFormsController</title>
<path fill="none" stroke="black" d="M-38.7159,-178.84C-31.4851,-219.095 -20.8781,-278.145 -11.9836,-327.662"/>
</g>
<!-- FixesController -->
<g id="node4" class="node"><title>FixesController</title>
<path fill="none" stroke="black" d="M-446.328,4.05961C-446.328,4.05961 -360.328,4.05961 -360.328,4.05961 -354.328,4.05961 -348.328,-1.94039 -348.328,-7.94039 -348.328,-7.94039 -348.328,-226.94 -348.328,-226.94 -348.328,-232.94 -354.328,-238.94 -360.328,-238.94 -360.328,-238.94 -446.328,-238.94 -446.328,-238.94 -452.328,-238.94 -458.328,-232.94 -458.328,-226.94 -458.328,-226.94 -458.328,-7.94039 -458.328,-7.94039 -458.328,-1.94039 -452.328,4.05961 -446.328,4.05961"/>
<text text-anchor="middle" x="-403.328" y="-223.74" font-family="Times,serif" font-size="14.00">FixesController</text>
<polyline fill="none" stroke="black" points="-458.328,-215.94 -348.328,-215.94 "/>
<text text-anchor="start" x="-450.328" y="-200.74" font-family="Times,serif" font-size="14.00">build_promote</text>
<text text-anchor="start" x="-450.328" y="-185.74" font-family="Times,serif" font-size="14.00">create</text>
<text text-anchor="start" x="-450.328" y="-170.74" font-family="Times,serif" font-size="14.00">destroy</text>
<text text-anchor="start" x="-450.328" y="-155.74" font-family="Times,serif" font-size="14.00">edit</text>
<text text-anchor="start" x="-450.328" y="-140.74" font-family="Times,serif" font-size="14.00">index</text>
<text text-anchor="start" x="-450.328" y="-125.74" font-family="Times,serif" font-size="14.00">new</text>
<text text-anchor="start" x="-450.328" y="-110.74" font-family="Times,serif" font-size="14.00">show</text>
<text text-anchor="start" x="-450.328" y="-95.7404" font-family="Times,serif" font-size="14.00">update</text>
<polyline fill="none" stroke="black" points="-458.328,-87.9404 -348.328,-87.9404 "/>
<polyline fill="none" stroke="black" points="-458.328,-63.9404 -348.328,-63.9404 "/>
<text text-anchor="start" x="-450.328" y="-48.7404" font-family="Times,serif" font-size="14.00">_layout</text>
<text text-anchor="start" x="-450.328" y="-33.7404" font-family="Times,serif" font-size="14.00">fix_params</text>
<text text-anchor="start" x="-450.328" y="-18.7404" font-family="Times,serif" font-size="14.00">new_fix_number</text>
<text text-anchor="start" x="-450.328" y="-3.74039" font-family="Times,serif" font-size="14.00">set_user</text>
</g>
<!-- ApplicationController&#45;&gt;FixesController -->
<g id="edge2" class="edge"><title>ApplicationController&#45;&gt;FixesController</title>
<path fill="none" stroke="black" d="M-115.437,-128.928C-183.098,-126.228 -285.466,-122.143 -348.157,-119.642"/>
</g>
<!-- UsersController -->
<g id="node5" class="node"><title>UsersController</title>
<path fill="none" stroke="black" d="M-402.103,-361.992C-402.103,-361.992 -323.103,-361.992 -323.103,-361.992 -317.103,-361.992 -311.103,-367.992 -311.103,-373.992 -311.103,-373.992 -311.103,-457.992 -311.103,-457.992 -311.103,-463.992 -317.103,-469.992 -323.103,-469.992 -323.103,-469.992 -402.103,-469.992 -402.103,-469.992 -408.103,-469.992 -414.103,-463.992 -414.103,-457.992 -414.103,-457.992 -414.103,-373.992 -414.103,-373.992 -414.103,-367.992 -408.103,-361.992 -402.103,-361.992"/>
<text text-anchor="middle" x="-362.603" y="-454.792" font-family="Times,serif" font-size="14.00">UsersController</text>
<polyline fill="none" stroke="black" points="-414.103,-446.992 -311.103,-446.992 "/>
<text text-anchor="start" x="-406.103" y="-431.792" font-family="Times,serif" font-size="14.00">index</text>
<text text-anchor="start" x="-406.103" y="-416.792" font-family="Times,serif" font-size="14.00">show</text>
<polyline fill="none" stroke="black" points="-414.103,-408.992 -311.103,-408.992 "/>
<polyline fill="none" stroke="black" points="-414.103,-384.992 -311.103,-384.992 "/>
<text text-anchor="start" x="-406.103" y="-369.792" font-family="Times,serif" font-size="14.00">_layout</text>
</g>
<!-- ApplicationController&#45;&gt;UsersController -->
<g id="edge3" class="edge"><title>ApplicationController&#45;&gt;UsersController</title>
<path fill="none" stroke="black" d="M-99.6301,-178.923C-158.313,-231.825 -252.784,-316.99 -311.088,-369.551"/>
</g>
<!-- DeviseController -->
<g id="node6" class="node"><title>DeviseController</title>
<path fill="none" stroke="black" d="M-41.6429,317.827C-41.6429,317.827 125.357,317.827 125.357,317.827 131.357,317.827 137.357,311.827 137.357,305.827 137.357,305.827 137.357,-62.1733 137.357,-62.1733 137.357,-68.1733 131.357,-74.1733 125.357,-74.1733 125.357,-74.1733 -41.6429,-74.1733 -41.6429,-74.1733 -47.6429,-74.1733 -53.6429,-68.1733 -53.6429,-62.1733 -53.6429,-62.1733 -53.6429,305.827 -53.6429,305.827 -53.6429,311.827 -47.6429,317.827 -41.6429,317.827"/>
<text text-anchor="middle" x="41.8571" y="-58.9733" font-family="Times,serif" font-size="14.00">DeviseController</text>
<polyline fill="none" stroke="black" points="-53.6429,-51.1733 137.357,-51.1733 "/>
<text text-anchor="start" x="-45.6429" y="-35.9733" font-family="Times,serif" font-size="14.00">_prefixes</text>
<polyline fill="none" stroke="black" points="-53.6429,-28.1733 137.357,-28.1733 "/>
<text text-anchor="start" x="-45.6429" y="-12.9733" font-family="Times,serif" font-size="14.00">assert_is_devise_resource!</text>
<text text-anchor="start" x="-45.6429" y="2.02671" font-family="Times,serif" font-size="14.00">clean_up_passwords</text>
<text text-anchor="start" x="-45.6429" y="17.0267" font-family="Times,serif" font-size="14.00">devise_i18n_options</text>
<text text-anchor="start" x="-45.6429" y="32.0267" font-family="Times,serif" font-size="14.00">devise_mapping</text>
<text text-anchor="start" x="-45.6429" y="47.0267" font-family="Times,serif" font-size="14.00">find_message</text>
<text text-anchor="start" x="-45.6429" y="62.0267" font-family="Times,serif" font-size="14.00">navigational_formats</text>
<text text-anchor="start" x="-45.6429" y="77.0267" font-family="Times,serif" font-size="14.00">require_no_authentication</text>
<text text-anchor="start" x="-45.6429" y="92.0267" font-family="Times,serif" font-size="14.00">resource</text>
<text text-anchor="start" x="-45.6429" y="107.027" font-family="Times,serif" font-size="14.00">resource=</text>
<text text-anchor="start" x="-45.6429" y="122.027" font-family="Times,serif" font-size="14.00">resource_class</text>
<text text-anchor="start" x="-45.6429" y="137.027" font-family="Times,serif" font-size="14.00">resource_name</text>
<text text-anchor="start" x="-45.6429" y="152.027" font-family="Times,serif" font-size="14.00">resource_params</text>
<text text-anchor="start" x="-45.6429" y="167.027" font-family="Times,serif" font-size="14.00">respond_with_navigational</text>
<text text-anchor="start" x="-45.6429" y="182.027" font-family="Times,serif" font-size="14.00">scope_name</text>
<text text-anchor="start" x="-45.6429" y="197.027" font-family="Times,serif" font-size="14.00">set_flash_message</text>
<text text-anchor="start" x="-45.6429" y="212.027" font-family="Times,serif" font-size="14.00">set_flash_message!</text>
<text text-anchor="start" x="-45.6429" y="227.027" font-family="Times,serif" font-size="14.00">set_minimum_password_length</text>
<text text-anchor="start" x="-45.6429" y="242.027" font-family="Times,serif" font-size="14.00">signed_in_resource</text>
<text text-anchor="start" x="-45.6429" y="257.027" font-family="Times,serif" font-size="14.00">successfully_sent?</text>
<text text-anchor="start" x="-45.6429" y="272.027" font-family="Times,serif" font-size="14.00">translation_scope</text>
<text text-anchor="start" x="-45.6429" y="287.027" font-family="Times,serif" font-size="14.00">unknown_action!</text>
<polyline fill="none" stroke="black" points="-53.6429,294.827 137.357,294.827 "/>
<text text-anchor="start" x="-45.6429" y="310.027" font-family="Times,serif" font-size="14.00">_layout</text>
</g>
<!-- ApplicationController&#45;&gt;DeviseController -->
<g id="edge4" class="edge"><title>ApplicationController&#45;&gt;DeviseController</title>
<path fill="none" stroke="black" d="M-30.6515,-84.5675C-29.4946,-81.2745 -28.2954,-77.861 -27.0599,-74.3442"/>
</g>
<!-- Devise::SessionsController -->
<g id="node7" class="node"><title>Devise::SessionsController</title>
<path fill="none" stroke="black" d="M275.055,-274.153C275.055,-274.153 415.055,-274.153 415.055,-274.153 421.055,-274.153 427.055,-280.153 427.055,-286.153 427.055,-286.153 427.055,-474.153 427.055,-474.153 427.055,-480.153 421.055,-486.153 415.055,-486.153 415.055,-486.153 275.055,-486.153 275.055,-486.153 269.055,-486.153 263.055,-480.153 263.055,-474.153 263.055,-474.153 263.055,-286.153 263.055,-286.153 263.055,-280.153 269.055,-274.153 275.055,-274.153"/>
<text text-anchor="middle" x="345.055" y="-470.953" font-family="Times,serif" font-size="14.00">Devise::SessionsController</text>
<polyline fill="none" stroke="black" points="263.055,-463.153 427.055,-463.153 "/>
<text text-anchor="start" x="271.055" y="-447.953" font-family="Times,serif" font-size="14.00">create</text>
<text text-anchor="start" x="271.055" y="-432.953" font-family="Times,serif" font-size="14.00">destroy</text>
<text text-anchor="start" x="271.055" y="-417.953" font-family="Times,serif" font-size="14.00">new</text>
<polyline fill="none" stroke="black" points="263.055,-410.153 427.055,-410.153 "/>
<text text-anchor="start" x="271.055" y="-394.953" font-family="Times,serif" font-size="14.00">auth_options</text>
<text text-anchor="start" x="271.055" y="-379.953" font-family="Times,serif" font-size="14.00">serialize_options</text>
<text text-anchor="start" x="271.055" y="-364.953" font-family="Times,serif" font-size="14.00">sign_in_params</text>
<text text-anchor="start" x="271.055" y="-349.953" font-family="Times,serif" font-size="14.00">translation_scope</text>
<polyline fill="none" stroke="black" points="263.055,-342.153 427.055,-342.153 "/>
<text text-anchor="start" x="271.055" y="-326.953" font-family="Times,serif" font-size="14.00">_layout</text>
<text text-anchor="start" x="271.055" y="-311.953" font-family="Times,serif" font-size="14.00">all_signed_out?</text>
<text text-anchor="start" x="271.055" y="-296.953" font-family="Times,serif" font-size="14.00">respond_to_on_destroy</text>
<text text-anchor="start" x="271.055" y="-281.953" font-family="Times,serif" font-size="14.00">verify_signed_out_user</text>
</g>
<!-- DeviseController&#45;&gt;Devise::SessionsController -->
<g id="edge5" class="edge"><title>DeviseController&#45;&gt;Devise::SessionsController</title>
<path fill="none" stroke="black" d="M137.375,-36.3139C184.154,-113.764 239.228,-204.944 280.903,-273.943"/>
</g>
<!-- Devise::PasswordsController -->
<g id="node8" class="node"><title>Devise::PasswordsController</title>
<path fill="none" stroke="black" d="M-473.54,231.654C-473.54,231.654 -195.54,231.654 -195.54,231.654 -189.54,231.654 -183.54,225.654 -183.54,219.654 -183.54,219.654 -183.54,46.6543 -183.54,46.6543 -183.54,40.6543 -189.54,34.6543 -195.54,34.6543 -195.54,34.6543 -473.54,34.6543 -473.54,34.6543 -479.54,34.6543 -485.54,40.6543 -485.54,46.6543 -485.54,46.6543 -485.54,219.654 -485.54,219.654 -485.54,225.654 -479.54,231.654 -473.54,231.654"/>
<text text-anchor="middle" x="-334.54" y="49.8543" font-family="Times,serif" font-size="14.00">Devise::PasswordsController</text>
<polyline fill="none" stroke="black" points="-485.54,57.6543 -183.54,57.6543 "/>
<text text-anchor="start" x="-477.54" y="72.8543" font-family="Times,serif" font-size="14.00">create</text>
<text text-anchor="start" x="-477.54" y="87.8543" font-family="Times,serif" font-size="14.00">edit</text>
<text text-anchor="start" x="-477.54" y="102.854" font-family="Times,serif" font-size="14.00">new</text>
<text text-anchor="start" x="-477.54" y="117.854" font-family="Times,serif" font-size="14.00">update</text>
<polyline fill="none" stroke="black" points="-485.54,125.654 -183.54,125.654 "/>
<text text-anchor="start" x="-477.54" y="140.854" font-family="Times,serif" font-size="14.00">after_resetting_password_path_for</text>
<text text-anchor="start" x="-477.54" y="155.854" font-family="Times,serif" font-size="14.00">after_sending_reset_password_instructions_path_for</text>
<text text-anchor="start" x="-477.54" y="170.854" font-family="Times,serif" font-size="14.00">assert_reset_token_passed</text>
<text text-anchor="start" x="-477.54" y="185.854" font-family="Times,serif" font-size="14.00">translation_scope</text>
<text text-anchor="start" x="-477.54" y="200.854" font-family="Times,serif" font-size="14.00">unlockable?</text>
<polyline fill="none" stroke="black" points="-485.54,208.654 -183.54,208.654 "/>
<text text-anchor="start" x="-477.54" y="223.854" font-family="Times,serif" font-size="14.00">_layout</text>
</g>
<!-- DeviseController&#45;&gt;Devise::PasswordsController -->
<g id="edge6" class="edge"><title>DeviseController&#45;&gt;Devise::PasswordsController</title>
<path fill="none" stroke="black" d="M-54.0976,124.714C-93.4117,125.898 -139.861,127.295 -183.528,128.61"/>
</g>
<!-- Devise::ConfirmationsController -->
<g id="node9" class="node"><title>Devise::ConfirmationsController</title>
<path fill="none" stroke="black" d="M208.06,51.5476C208.06,51.5476 484.06,51.5476 484.06,51.5476 490.06,51.5476 496.06,45.5476 496.06,39.5476 496.06,39.5476 496.06,-88.4524 496.06,-88.4524 496.06,-94.4524 490.06,-100.452 484.06,-100.452 484.06,-100.452 208.06,-100.452 208.06,-100.452 202.06,-100.452 196.06,-94.4524 196.06,-88.4524 196.06,-88.4524 196.06,39.5476 196.06,39.5476 196.06,45.5476 202.06,51.5476 208.06,51.5476"/>
<text text-anchor="middle" x="346.06" y="-85.2524" font-family="Times,serif" font-size="14.00">Devise::ConfirmationsController</text>
<polyline fill="none" stroke="black" points="196.06,-77.4524 496.06,-77.4524 "/>
<text text-anchor="start" x="204.06" y="-62.2524" font-family="Times,serif" font-size="14.00">create</text>
<text text-anchor="start" x="204.06" y="-47.2524" font-family="Times,serif" font-size="14.00">new</text>
<text text-anchor="start" x="204.06" y="-32.2524" font-family="Times,serif" font-size="14.00">show</text>
<polyline fill="none" stroke="black" points="196.06,-24.4524 496.06,-24.4524 "/>
<text text-anchor="start" x="204.06" y="-9.25245" font-family="Times,serif" font-size="14.00">after_confirmation_path_for</text>
<text text-anchor="start" x="204.06" y="5.74755" font-family="Times,serif" font-size="14.00">after_resending_confirmation_instructions_path_for</text>
<text text-anchor="start" x="204.06" y="20.7476" font-family="Times,serif" font-size="14.00">translation_scope</text>
<polyline fill="none" stroke="black" points="196.06,28.5476 496.06,28.5476 "/>
<text text-anchor="start" x="204.06" y="43.7476" font-family="Times,serif" font-size="14.00">_layout</text>
</g>
<!-- DeviseController&#45;&gt;Devise::ConfirmationsController -->
<g id="edge7" class="edge"><title>DeviseController&#45;&gt;Devise::ConfirmationsController</title>
<path fill="none" stroke="black" d="M137.691,75.7439C156.239,66.825 176.086,57.2814 195.889,47.7587"/>
</g>
<!-- Devise::RegistrationsController -->
<g id="node10" class="node"><title>Devise::RegistrationsController</title>
<path fill="none" stroke="black" d="M-462.496,566.338C-462.496,566.338 -293.496,566.338 -293.496,566.338 -287.496,566.338 -281.496,560.338 -281.496,554.338 -281.496,554.338 -281.496,261.338 -281.496,261.338 -281.496,255.338 -287.496,249.338 -293.496,249.338 -293.496,249.338 -462.496,249.338 -462.496,249.338 -468.496,249.338 -474.496,255.338 -474.496,261.338 -474.496,261.338 -474.496,554.338 -474.496,554.338 -474.496,560.338 -468.496,566.338 -462.496,566.338"/>
<text text-anchor="middle" x="-377.996" y="264.538" font-family="Times,serif" font-size="14.00">Devise::RegistrationsController</text>
<polyline fill="none" stroke="black" points="-474.496,272.338 -281.496,272.338 "/>
<text text-anchor="start" x="-466.496" y="287.538" font-family="Times,serif" font-size="14.00">cancel</text>
<text text-anchor="start" x="-466.496" y="302.538" font-family="Times,serif" font-size="14.00">create</text>
<text text-anchor="start" x="-466.496" y="317.538" font-family="Times,serif" font-size="14.00">destroy</text>
<text text-anchor="start" x="-466.496" y="332.538" font-family="Times,serif" font-size="14.00">edit</text>
<text text-anchor="start" x="-466.496" y="347.538" font-family="Times,serif" font-size="14.00">new</text>
<text text-anchor="start" x="-466.496" y="362.538" font-family="Times,serif" font-size="14.00">update</text>
<polyline fill="none" stroke="black" points="-474.496,370.338 -281.496,370.338 "/>
<text text-anchor="start" x="-466.496" y="385.538" font-family="Times,serif" font-size="14.00">account_update_params</text>
<text text-anchor="start" x="-466.496" y="400.538" font-family="Times,serif" font-size="14.00">after_inactive_sign_up_path_for</text>
<text text-anchor="start" x="-466.496" y="415.538" font-family="Times,serif" font-size="14.00">after_sign_up_path_for</text>
<text text-anchor="start" x="-466.496" y="430.538" font-family="Times,serif" font-size="14.00">after_update_path_for</text>
<text text-anchor="start" x="-466.496" y="445.538" font-family="Times,serif" font-size="14.00">authenticate_scope!</text>
<text text-anchor="start" x="-466.496" y="460.538" font-family="Times,serif" font-size="14.00">build_resource</text>
<text text-anchor="start" x="-466.496" y="475.538" font-family="Times,serif" font-size="14.00">sign_up</text>
<text text-anchor="start" x="-466.496" y="490.538" font-family="Times,serif" font-size="14.00">sign_up_params</text>
<text text-anchor="start" x="-466.496" y="505.538" font-family="Times,serif" font-size="14.00">translation_scope</text>
<text text-anchor="start" x="-466.496" y="520.538" font-family="Times,serif" font-size="14.00">update_needs_confirmation?</text>
<text text-anchor="start" x="-466.496" y="535.538" font-family="Times,serif" font-size="14.00">update_resource</text>
<polyline fill="none" stroke="black" points="-474.496,543.338 -281.496,543.338 "/>
<text text-anchor="start" x="-466.496" y="558.538" font-family="Times,serif" font-size="14.00">_layout</text>
</g>
<!-- DeviseController&#45;&gt;Devise::RegistrationsController -->
<g id="edge8" class="edge"><title>DeviseController&#45;&gt;Devise::RegistrationsController</title>
<path fill="none" stroke="black" d="M-53.6766,186.906C-121.795,233.309 -213.047,295.472 -281.403,342.037"/>
</g>
<!-- Devise::OmniauthCallbacksController -->
<g id="node11" class="node"><title>Devise::OmniauthCallbacksController</title>
<path fill="none" stroke="black" d="M248.925,437.776C248.925,437.776 449.925,437.776 449.925,437.776 455.925,437.776 461.925,431.776 461.925,425.776 461.925,425.776 461.925,297.776 461.925,297.776 461.925,291.776 455.925,285.776 449.925,285.776 449.925,285.776 248.925,285.776 248.925,285.776 242.925,285.776 236.925,291.776 236.925,297.776 236.925,297.776 236.925,425.776 236.925,425.776 236.925,431.776 242.925,437.776 248.925,437.776"/>
<text text-anchor="middle" x="349.425" y="300.976" font-family="Times,serif" font-size="14.00">Devise::OmniauthCallbacksController</text>
<polyline fill="none" stroke="black" points="236.925,308.776 461.925,308.776 "/>
<text text-anchor="start" x="244.925" y="323.976" font-family="Times,serif" font-size="14.00">failure</text>
<text text-anchor="start" x="244.925" y="338.976" font-family="Times,serif" font-size="14.00">passthru</text>
<polyline fill="none" stroke="black" points="236.925,346.776 461.925,346.776 "/>
<text text-anchor="start" x="244.925" y="361.976" font-family="Times,serif" font-size="14.00">after_omniauth_failure_path_for</text>
<text text-anchor="start" x="244.925" y="376.976" font-family="Times,serif" font-size="14.00">failed_strategy</text>
<text text-anchor="start" x="244.925" y="391.976" font-family="Times,serif" font-size="14.00">failure_message</text>
<text text-anchor="start" x="244.925" y="406.976" font-family="Times,serif" font-size="14.00">translation_scope</text>
<polyline fill="none" stroke="black" points="236.925,414.776 461.925,414.776 "/>
<text text-anchor="start" x="244.925" y="429.976" font-family="Times,serif" font-size="14.00">_layout</text>
</g>
<!-- DeviseController&#45;&gt;Devise::OmniauthCallbacksController -->
<g id="edge9" class="edge"><title>DeviseController&#45;&gt;Devise::OmniauthCallbacksController</title>
<path fill="none" stroke="black" d="M137.487,196.433C173.902,224.842 215.419,257.231 251.998,285.768"/>
</g>
<!-- Devise::UnlocksController -->
<g id="node12" class="node"><title>Devise::UnlocksController</title>
<path fill="none" stroke="black" d="M-127.021,485.85C-127.021,485.85 104.979,485.85 104.979,485.85 110.979,485.85 116.979,479.85 116.979,473.85 116.979,473.85 116.979,345.85 116.979,345.85 116.979,339.85 110.979,333.85 104.979,333.85 104.979,333.85 -127.021,333.85 -127.021,333.85 -133.021,333.85 -139.021,339.85 -139.021,345.85 -139.021,345.85 -139.021,473.85 -139.021,473.85 -139.021,479.85 -133.021,485.85 -127.021,485.85"/>
<text text-anchor="middle" x="-11.0213" y="349.05" font-family="Times,serif" font-size="14.00">Devise::UnlocksController</text>
<polyline fill="none" stroke="black" points="-139.021,356.85 116.979,356.85 "/>
<text text-anchor="start" x="-131.021" y="372.05" font-family="Times,serif" font-size="14.00">create</text>
<text text-anchor="start" x="-131.021" y="387.05" font-family="Times,serif" font-size="14.00">new</text>
<text text-anchor="start" x="-131.021" y="402.05" font-family="Times,serif" font-size="14.00">show</text>
<polyline fill="none" stroke="black" points="-139.021,409.85 116.979,409.85 "/>
<text text-anchor="start" x="-131.021" y="425.05" font-family="Times,serif" font-size="14.00">after_sending_unlock_instructions_path_for</text>
<text text-anchor="start" x="-131.021" y="440.05" font-family="Times,serif" font-size="14.00">after_unlock_path_for</text>
<text text-anchor="start" x="-131.021" y="455.05" font-family="Times,serif" font-size="14.00">translation_scope</text>
<polyline fill="none" stroke="black" points="-139.021,462.85 116.979,462.85 "/>
<text text-anchor="start" x="-131.021" y="478.05" font-family="Times,serif" font-size="14.00">_layout</text>
</g>
<!-- DeviseController&#45;&gt;Devise::UnlocksController -->
<g id="edge10" class="edge"><title>DeviseController&#45;&gt;Devise::UnlocksController</title>
<path fill="none" stroke="black" d="M5.85514,317.926C4.86766,323.304 3.90075,328.571 2.96105,333.689"/>
</g>
</g>
</svg>
