<?xml version="1.0" encoding="UTF-8" standalone="no"?>
<!DOCTYPE svg PUBLIC "-//W3C//DTD SVG 1.1//EN"
 "http://www.w3.org/Graphics/SVG/1.1/DTD/svg11.dtd">
<!-- Generated by graphviz version 2.38.0 (20140413.2041)
 -->
<!-- Title: models_diagram Pages: 1 -->
<svg width="976pt" height="930pt"
 viewBox="0.00 0.00 975.50 930.00" xmlns="http://www.w3.org/2000/svg" xmlns:xlink="http://www.w3.org/1999/xlink">
<g id="graph0" class="graph" transform="scale(1 1) rotate(0) translate(4 926)">
<title>models_diagram</title>
<polygon fill="none" stroke="none" points="-4,4 -4,-926 971.5,-926 971.5,4 -4,4"/>
<!-- _diagram_info -->
<g id="node1" class="node"><title>_diagram_info</title>
<text text-anchor="start" x="248.5" y="-907.6" font-family="Times,serif" font-size="13.00">Models diagram</text>
<text text-anchor="start" x="248.5" y="-893.6" font-family="Times,serif" font-size="13.00">Date: May 22 2018 &#45; 17:02</text>
<text text-anchor="start" x="248.5" y="-879.6" font-family="Times,serif" font-size="13.00">Migration version: 20180522125157</text>
<text text-anchor="start" x="248.5" y="-865.6" font-family="Times,serif" font-size="13.00">Generated by RailRoady 1.5.3</text>
<text text-anchor="start" x="248.5" y="-851.6" font-family="Times,serif" font-size="13.00">http://railroady.prestonlee.com</text>
</g>
<!-- FixNumber -->
<g id="node2" class="node"><title>FixNumber</title>
<path fill="none" stroke="black" d="M12,-640.5C12,-640.5 119,-640.5 119,-640.5 125,-640.5 131,-646.5 131,-652.5 131,-652.5 131,-719.5 131,-719.5 131,-725.5 125,-731.5 119,-731.5 119,-731.5 12,-731.5 12,-731.5 6,-731.5 0,-725.5 0,-719.5 0,-719.5 0,-652.5 0,-652.5 0,-646.5 6,-640.5 12,-640.5"/>
<text text-anchor="middle" x="65.5" y="-716.3" font-family="Times,serif" font-size="14.00">FixNumber</text>
<polyline fill="none" stroke="black" points="0,-708.5 131,-708.5 "/>
<text text-anchor="start" x="8" y="-693.3" font-family="Times,serif" font-size="14.00">id :bigint(20)</text>
<text text-anchor="start" x="8" y="-678.3" font-family="Times,serif" font-size="14.00">number :int(11)</text>
<text text-anchor="start" x="8" y="-663.3" font-family="Times,serif" font-size="14.00">created_at :datetime</text>
<text text-anchor="start" x="8" y="-648.3" font-family="Times,serif" font-size="14.00">updated_at :datetime</text>
</g>
<!-- ActionInformation -->
<g id="node3" class="node"><title>ActionInformation</title>
<path fill="none" stroke="black" d="M119,-362.5C119,-362.5 250,-362.5 250,-362.5 256,-362.5 262,-368.5 262,-374.5 262,-374.5 262,-501.5 262,-501.5 262,-507.5 256,-513.5 250,-513.5 250,-513.5 119,-513.5 119,-513.5 113,-513.5 107,-507.5 107,-501.5 107,-501.5 107,-374.5 107,-374.5 107,-368.5 113,-362.5 119,-362.5"/>
<text text-anchor="middle" x="184.5" y="-498.3" font-family="Times,serif" font-size="14.00">ActionInformation</text>
<polyline fill="none" stroke="black" points="107,-490.5 262,-490.5 "/>
<text text-anchor="start" x="115" y="-475.3" font-family="Times,serif" font-size="14.00">id :bigint(20)</text>
<text text-anchor="start" x="115" y="-460.3" font-family="Times,serif" font-size="14.00">fix_id :bigint(20)</text>
<text text-anchor="start" x="115" y="-445.3" font-family="Times,serif" font-size="14.00">from_level_id :bigint(20)</text>
<text text-anchor="start" x="115" y="-430.3" font-family="Times,serif" font-size="14.00">to_level_id :bigint(20)</text>
<text text-anchor="start" x="115" y="-415.3" font-family="Times,serif" font-size="14.00">user_id :bigint(20)</text>
<text text-anchor="start" x="115" y="-400.3" font-family="Times,serif" font-size="14.00">action :varchar(255)</text>
<text text-anchor="start" x="115" y="-385.3" font-family="Times,serif" font-size="14.00">created_at :datetime</text>
<text text-anchor="start" x="115" y="-370.3" font-family="Times,serif" font-size="14.00">updated_at :datetime</text>
</g>
<!-- Fix -->
<g id="node4" class="node"><title>Fix</title>
<path fill="none" stroke="black" d="M815.5,-362.5C815.5,-362.5 927.5,-362.5 927.5,-362.5 933.5,-362.5 939.5,-368.5 939.5,-374.5 939.5,-374.5 939.5,-501.5 939.5,-501.5 939.5,-507.5 933.5,-513.5 927.5,-513.5 927.5,-513.5 815.5,-513.5 815.5,-513.5 809.5,-513.5 803.5,-507.5 803.5,-501.5 803.5,-501.5 803.5,-374.5 803.5,-374.5 803.5,-368.5 809.5,-362.5 815.5,-362.5"/>
<text text-anchor="middle" x="871.5" y="-498.3" font-family="Times,serif" font-size="14.00">Fix</text>
<polyline fill="none" stroke="black" points="803.5,-490.5 939.5,-490.5 "/>
<text text-anchor="start" x="811.5" y="-475.3" font-family="Times,serif" font-size="14.00">id :bigint(20)</text>
<text text-anchor="start" x="811.5" y="-460.3" font-family="Times,serif" font-size="14.00">number :varchar(255)</text>
<text text-anchor="start" x="811.5" y="-445.3" font-family="Times,serif" font-size="14.00">description :text</text>
<text text-anchor="start" x="811.5" y="-430.3" font-family="Times,serif" font-size="14.00">level_id :bigint(20)</text>
<text text-anchor="start" x="811.5" y="-415.3" font-family="Times,serif" font-size="14.00">user_id :bigint(20)</text>
<text text-anchor="start" x="811.5" y="-400.3" font-family="Times,serif" font-size="14.00">created_at :datetime</text>
<text text-anchor="start" x="811.5" y="-385.3" font-family="Times,serif" font-size="14.00">updated_at :datetime</text>
<text text-anchor="start" x="811.5" y="-370.3" font-family="Times,serif" font-size="14.00">status :varchar(255)</text>
</g>
<!-- PromotionForm -->
<g id="node7" class="node"><title>PromotionForm</title>
<path fill="none" stroke="black" d="M687,-188.5C687,-188.5 794,-188.5 794,-188.5 800,-188.5 806,-194.5 806,-200.5 806,-200.5 806,-312.5 806,-312.5 806,-318.5 800,-324.5 794,-324.5 794,-324.5 687,-324.5 687,-324.5 681,-324.5 675,-318.5 675,-312.5 675,-312.5 675,-200.5 675,-200.5 675,-194.5 681,-188.5 687,-188.5"/>
<text text-anchor="middle" x="740.5" y="-309.3" font-family="Times,serif" font-size="14.00">PromotionForm</text>
<polyline fill="none" stroke="black" points="675,-301.5 806,-301.5 "/>
<text text-anchor="start" x="683" y="-286.3" font-family="Times,serif" font-size="14.00">id :bigint(20)</text>
<text text-anchor="start" x="683" y="-271.3" font-family="Times,serif" font-size="14.00">name :varchar(255)</text>
<text text-anchor="start" x="683" y="-256.3" font-family="Times,serif" font-size="14.00">fix_id :bigint(20)</text>
<text text-anchor="start" x="683" y="-241.3" font-family="Times,serif" font-size="14.00">description :text</text>
<text text-anchor="start" x="683" y="-226.3" font-family="Times,serif" font-size="14.00">level_id :bigint(20)</text>
<text text-anchor="start" x="683" y="-211.3" font-family="Times,serif" font-size="14.00">created_at :datetime</text>
<text text-anchor="start" x="683" y="-196.3" font-family="Times,serif" font-size="14.00">updated_at :datetime</text>
</g>
<!-- Fix&#45;&gt;PromotionForm -->
<g id="edge3" class="edge"><title>Fix&#45;&gt;PromotionForm</title>
<path fill="none" stroke="#eae250" d="M812.348,-355.948C806.741,-348.266 801.072,-340.498 795.507,-332.872"/>
<ellipse fill="none" stroke="#eae250" cx="814.724" cy="-359.204" rx="4.00002" ry="4.00002"/>
<polygon fill="#eae250" stroke="#eae250" points="795.412,-332.742 793.152,-322.011 792.464,-328.703 789.517,-324.664 789.517,-324.664 789.517,-324.664 792.464,-328.703 785.882,-327.317 795.412,-332.742 795.412,-332.742"/>
</g>
<!-- Member -->
<g id="node5" class="node"><title>Member</title>
<path fill="none" stroke="black" d="M468.5,-8C468.5,-8 630.5,-8 630.5,-8 636.5,-8 642.5,-14 642.5,-20 642.5,-20 642.5,-117 642.5,-117 642.5,-123 636.5,-129 630.5,-129 630.5,-129 468.5,-129 468.5,-129 462.5,-129 456.5,-123 456.5,-117 456.5,-117 456.5,-20 456.5,-20 456.5,-14 462.5,-8 468.5,-8"/>
<text text-anchor="middle" x="549.5" y="-113.8" font-family="Times,serif" font-size="14.00">Member</text>
<polyline fill="none" stroke="black" points="456.5,-106 642.5,-106 "/>
<text text-anchor="start" x="464.5" y="-90.8" font-family="Times,serif" font-size="14.00">id :bigint(20)</text>
<text text-anchor="start" x="464.5" y="-75.8" font-family="Times,serif" font-size="14.00">name :varchar(255)</text>
<text text-anchor="start" x="464.5" y="-60.8" font-family="Times,serif" font-size="14.00">member_type_id :bigint(20)</text>
<text text-anchor="start" x="464.5" y="-45.8" font-family="Times,serif" font-size="14.00">promotion_form_id :bigint(20)</text>
<text text-anchor="start" x="464.5" y="-30.8" font-family="Times,serif" font-size="14.00">created_at :datetime</text>
<text text-anchor="start" x="464.5" y="-15.8" font-family="Times,serif" font-size="14.00">updated_at :datetime</text>
</g>
<!-- User -->
<g id="node6" class="node"><title>User</title>
<path fill="none" stroke="black" d="M665.5,-565.5C665.5,-565.5 855.5,-565.5 855.5,-565.5 861.5,-565.5 867.5,-571.5 867.5,-577.5 867.5,-577.5 867.5,-794.5 867.5,-794.5 867.5,-800.5 861.5,-806.5 855.5,-806.5 855.5,-806.5 665.5,-806.5 665.5,-806.5 659.5,-806.5 653.5,-800.5 653.5,-794.5 653.5,-794.5 653.5,-577.5 653.5,-577.5 653.5,-571.5 659.5,-565.5 665.5,-565.5"/>
<text text-anchor="middle" x="760.5" y="-791.3" font-family="Times,serif" font-size="14.00">User</text>
<polyline fill="none" stroke="black" points="653.5,-783.5 867.5,-783.5 "/>
<text text-anchor="start" x="661.5" y="-768.3" font-family="Times,serif" font-size="14.00">id :bigint(20)</text>
<text text-anchor="start" x="661.5" y="-753.3" font-family="Times,serif" font-size="14.00">email :varchar(255)</text>
<text text-anchor="start" x="661.5" y="-738.3" font-family="Times,serif" font-size="14.00">encrypted_password :varchar(255)</text>
<text text-anchor="start" x="661.5" y="-723.3" font-family="Times,serif" font-size="14.00">reset_password_token :varchar(255)</text>
<text text-anchor="start" x="661.5" y="-708.3" font-family="Times,serif" font-size="14.00">reset_password_sent_at :datetime</text>
<text text-anchor="start" x="661.5" y="-693.3" font-family="Times,serif" font-size="14.00">remember_created_at :datetime</text>
<text text-anchor="start" x="661.5" y="-678.3" font-family="Times,serif" font-size="14.00">sign_in_count :int(11)</text>
<text text-anchor="start" x="661.5" y="-663.3" font-family="Times,serif" font-size="14.00">current_sign_in_at :datetime</text>
<text text-anchor="start" x="661.5" y="-648.3" font-family="Times,serif" font-size="14.00">last_sign_in_at :datetime</text>
<text text-anchor="start" x="661.5" y="-633.3" font-family="Times,serif" font-size="14.00">current_sign_in_ip :varchar(255)</text>
<text text-anchor="start" x="661.5" y="-618.3" font-family="Times,serif" font-size="14.00">last_sign_in_ip :varchar(255)</text>
<text text-anchor="start" x="661.5" y="-603.3" font-family="Times,serif" font-size="14.00">username :varchar(255)</text>
<text text-anchor="start" x="661.5" y="-588.3" font-family="Times,serif" font-size="14.00">created_at :datetime</text>
<text text-anchor="start" x="661.5" y="-573.3" font-family="Times,serif" font-size="14.00">updated_at :datetime</text>
</g>
<!-- User&#45;&gt;Fix -->
<g id="edge7" class="edge"><title>User&#45;&gt;Fix</title>
<path fill="none" stroke="#e352d9" d="M817.887,-557.818C823.216,-546.008 828.522,-534.248 833.608,-522.976"/>
<ellipse fill="none" stroke="#e352d9" cx="816.182" cy="-561.597" rx="4.00002" ry="4.00002"/>
<polygon fill="#e352d9" stroke="#e352d9" points="833.711,-522.747 841.926,-515.483 835.768,-518.19 837.824,-513.632 837.824,-513.632 837.824,-513.632 835.768,-518.19 833.723,-511.782 833.711,-522.747 833.711,-522.747"/>
</g>
<!-- Role -->
<g id="node13" class="node"><title>Role</title>
<path fill="none" stroke="black" d="M627.5,-377.5C627.5,-377.5 773.5,-377.5 773.5,-377.5 779.5,-377.5 785.5,-383.5 785.5,-389.5 785.5,-389.5 785.5,-486.5 785.5,-486.5 785.5,-492.5 779.5,-498.5 773.5,-498.5 773.5,-498.5 627.5,-498.5 627.5,-498.5 621.5,-498.5 615.5,-492.5 615.5,-486.5 615.5,-486.5 615.5,-389.5 615.5,-389.5 615.5,-383.5 621.5,-377.5 627.5,-377.5"/>
<text text-anchor="middle" x="700.5" y="-483.3" font-family="Times,serif" font-size="14.00">Role</text>
<polyline fill="none" stroke="black" points="615.5,-475.5 785.5,-475.5 "/>
<text text-anchor="start" x="623.5" y="-460.3" font-family="Times,serif" font-size="14.00">id :bigint(20)</text>
<text text-anchor="start" x="623.5" y="-445.3" font-family="Times,serif" font-size="14.00">name :varchar(255)</text>
<text text-anchor="start" x="623.5" y="-430.3" font-family="Times,serif" font-size="14.00">resource_type :varchar(255)</text>
<text text-anchor="start" x="623.5" y="-415.3" font-family="Times,serif" font-size="14.00">resource_id :bigint(20)</text>
<text text-anchor="start" x="623.5" y="-400.3" font-family="Times,serif" font-size="14.00">created_at :datetime</text>
<text text-anchor="start" x="623.5" y="-385.3" font-family="Times,serif" font-size="14.00">updated_at :datetime</text>
</g>
<!-- User&#45;&gt;Role -->
<g id="edge6" class="edge"><title>User&#45;&gt;Role</title>
<path fill="none" stroke="#5abef3" d="M728.915,-555.5C724.985,-539.39 721.092,-523.429 717.506,-508.726"/>
<polygon fill="#5abef3" stroke="#5abef3" points="728.921,-555.528 726.919,-566.309 730.106,-560.385 731.291,-565.243 731.291,-565.243 731.291,-565.243 730.106,-560.385 735.663,-564.176 728.921,-555.528 728.921,-555.528"/>
<polygon fill="#5abef3" stroke="#5abef3" points="717.446,-508.478 719.448,-497.696 716.261,-503.62 715.076,-498.763 715.076,-498.763 715.076,-498.763 716.261,-503.62 710.704,-499.829 717.446,-508.478 717.446,-508.478"/>
</g>
<!-- PromotionForm&#45;&gt;Member -->
<g id="edge9" class="edge"><title>PromotionForm&#45;&gt;Member</title>
<path fill="none" stroke="#507c8e" d="M668.89,-185.765C652.333,-169.641 634.751,-152.52 618.316,-136.515"/>
<ellipse fill="none" stroke="#507c8e" cx="671.903" cy="-188.699" rx="4.00002" ry="4.00002"/>
<polygon fill="#507c8e" stroke="#507c8e" points="618.018,-136.224 613.993,-126.023 614.435,-132.736 610.853,-129.247 610.853,-129.247 610.853,-129.247 614.435,-132.736 607.714,-132.471 618.018,-136.224 618.018,-136.224"/>
</g>
<!-- Interlink -->
<g id="node10" class="node"><title>Interlink</title>
<path fill="none" stroke="black" d="M715.5,-0.5C715.5,-0.5 887.5,-0.5 887.5,-0.5 893.5,-0.5 899.5,-6.5 899.5,-12.5 899.5,-12.5 899.5,-124.5 899.5,-124.5 899.5,-130.5 893.5,-136.5 887.5,-136.5 887.5,-136.5 715.5,-136.5 715.5,-136.5 709.5,-136.5 703.5,-130.5 703.5,-124.5 703.5,-124.5 703.5,-12.5 703.5,-12.5 703.5,-6.5 709.5,-0.5 715.5,-0.5"/>
<text text-anchor="middle" x="801.5" y="-121.3" font-family="Times,serif" font-size="14.00">Interlink</text>
<polyline fill="none" stroke="black" points="703.5,-113.5 899.5,-113.5 "/>
<text text-anchor="start" x="711.5" y="-98.3" font-family="Times,serif" font-size="14.00">id :bigint(20)</text>
<text text-anchor="start" x="711.5" y="-83.3" font-family="Times,serif" font-size="14.00">member_id :bigint(20)</text>
<text text-anchor="start" x="711.5" y="-68.3" font-family="Times,serif" font-size="14.00">first_promform_id :bigint(20)</text>
<text text-anchor="start" x="711.5" y="-53.3" font-family="Times,serif" font-size="14.00">second_promform_id :bigint(20)</text>
<text text-anchor="start" x="711.5" y="-38.3" font-family="Times,serif" font-size="14.00">level_id :bigint(20)</text>
<text text-anchor="start" x="711.5" y="-23.3" font-family="Times,serif" font-size="14.00">created_at :datetime</text>
<text text-anchor="start" x="711.5" y="-8.3" font-family="Times,serif" font-size="14.00">updated_at :datetime</text>
</g>
<!-- PromotionForm&#45;&gt;Interlink -->
<g id="edge10" class="edge"><title>PromotionForm&#45;&gt;Interlink</title>
<path fill="none" stroke="#95d3bd" d="M775.636,-180.867C777.008,-177.219 778.305,-173.584 779.5,-170 782.03,-162.411 784.347,-154.401 786.45,-146.349"/>
<ellipse fill="none" stroke="#95d3bd" cx="774.172" cy="-184.632" rx="4.00001" ry="4.00001"/>
<polygon fill="#95d3bd" stroke="#95d3bd" points="786.479,-146.234 793.274,-137.627 787.694,-141.384 788.908,-136.534 788.908,-136.534 788.908,-136.534 787.694,-141.384 784.543,-135.441 786.479,-146.234 786.479,-146.234"/>
<text text-anchor="middle" x="794.5" y="-158.8" font-family="Times,serif" font-size="14.00">first</text>
</g>
<!-- PromotionForm&#45;&gt;Interlink -->
<g id="edge11" class="edge"><title>PromotionForm&#45;&gt;Interlink</title>
<path fill="none" stroke="#f47570" d="M732.531,-180.084C733.298,-171.495 734.847,-162.97 737.5,-155 738.539,-151.877 739.742,-148.777 741.081,-145.71"/>
<ellipse fill="none" stroke="#f47570" cx="732.27" cy="-184.331" rx="4" ry="4"/>
<polygon fill="#f47570" stroke="#f47570" points="741.122,-145.625 749.528,-138.583 743.299,-141.124 745.477,-136.623 745.477,-136.623 745.477,-136.623 743.299,-141.124 741.426,-134.663 741.122,-145.625 741.122,-145.625"/>
<text text-anchor="middle" x="756.5" y="-158.8" font-family="Times,serif" font-size="14.00">second</text>
</g>
<!-- Level -->
<g id="node8" class="node"><title>Level</title>
<path fill="none" stroke="black" d="M199.5,-633C199.5,-633 321.5,-633 321.5,-633 327.5,-633 333.5,-639 333.5,-645 333.5,-645 333.5,-727 333.5,-727 333.5,-733 327.5,-739 321.5,-739 321.5,-739 199.5,-739 199.5,-739 193.5,-739 187.5,-733 187.5,-727 187.5,-727 187.5,-645 187.5,-645 187.5,-639 193.5,-633 199.5,-633"/>
<text text-anchor="middle" x="260.5" y="-723.8" font-family="Times,serif" font-size="14.00">Level</text>
<polyline fill="none" stroke="black" points="187.5,-716 333.5,-716 "/>
<text text-anchor="start" x="195.5" y="-700.8" font-family="Times,serif" font-size="14.00">id :bigint(20)</text>
<text text-anchor="start" x="195.5" y="-685.8" font-family="Times,serif" font-size="14.00">name :varchar(255)</text>
<text text-anchor="start" x="195.5" y="-670.8" font-family="Times,serif" font-size="14.00">test_level :varchar(255)</text>
<text text-anchor="start" x="195.5" y="-655.8" font-family="Times,serif" font-size="14.00">created_at :datetime</text>
<text text-anchor="start" x="195.5" y="-640.8" font-family="Times,serif" font-size="14.00">updated_at :datetime</text>
</g>
<!-- Level&#45;&gt;ActionInformation -->
<g id="edge13" class="edge"><title>Level&#45;&gt;ActionInformation</title>
<path fill="none" stroke="#e025e3" d="M232.5,-625.272C222.172,-601.353 211.14,-573.279 203.5,-547 201.29,-539.397 199.296,-531.414 197.507,-523.375"/>
<ellipse fill="none" stroke="#e025e3" cx="234.223" cy="-629.219" rx="4.00002" ry="4.00002"/>
<polygon fill="#e025e3" stroke="#e025e3" points="197.501,-523.345 199.828,-512.629 196.463,-518.454 195.425,-513.563 195.425,-513.563 195.425,-513.563 196.463,-518.454 191.023,-514.497 197.501,-523.345 197.501,-523.345"/>
<text text-anchor="middle" x="217.5" y="-535.8" font-family="Times,serif" font-size="14.00">from</text>
</g>
<!-- Level&#45;&gt;ActionInformation -->
<g id="edge14" class="edge"><title>Level&#45;&gt;ActionInformation</title>
<path fill="none" stroke="#6dead3" d="M253.027,-624.448C248.498,-595.917 241.596,-561.704 231.5,-532 230.499,-529.055 229.42,-526.086 228.279,-523.109"/>
<ellipse fill="none" stroke="#6dead3" cx="253.691" cy="-628.767" rx="4.00001" ry="4.00001"/>
<polygon fill="#6dead3" stroke="#6dead3" points="228.183,-522.871 228.612,-511.913 226.311,-518.234 224.44,-513.598 224.44,-513.598 224.44,-513.598 226.311,-518.234 220.267,-515.282 228.183,-522.871 228.183,-522.871"/>
<text text-anchor="middle" x="241" y="-535.8" font-family="Times,serif" font-size="14.00">to</text>
</g>
<!-- MemberLocation -->
<g id="node12" class="node"><title>MemberLocation</title>
<path fill="none" stroke="black" d="M292,-377.5C292,-377.5 439,-377.5 439,-377.5 445,-377.5 451,-383.5 451,-389.5 451,-389.5 451,-486.5 451,-486.5 451,-492.5 445,-498.5 439,-498.5 439,-498.5 292,-498.5 292,-498.5 286,-498.5 280,-492.5 280,-486.5 280,-486.5 280,-389.5 280,-389.5 280,-383.5 286,-377.5 292,-377.5"/>
<text text-anchor="middle" x="365.5" y="-483.3" font-family="Times,serif" font-size="14.00">MemberLocation</text>
<polyline fill="none" stroke="black" points="280,-475.5 451,-475.5 "/>
<text text-anchor="start" x="288" y="-460.3" font-family="Times,serif" font-size="14.00">id :bigint(20)</text>
<text text-anchor="start" x="288" y="-445.3" font-family="Times,serif" font-size="14.00">member_type_id :bigint(20)</text>
<text text-anchor="start" x="288" y="-430.3" font-family="Times,serif" font-size="14.00">level_id :bigint(20)</text>
<text text-anchor="start" x="288" y="-415.3" font-family="Times,serif" font-size="14.00">location :varchar(255)</text>
<text text-anchor="start" x="288" y="-400.3" font-family="Times,serif" font-size="14.00">created_at :datetime</text>
<text text-anchor="start" x="288" y="-385.3" font-family="Times,serif" font-size="14.00">updated_at :datetime</text>
</g>
<!-- Level&#45;&gt;MemberLocation -->
<g id="edge15" class="edge"><title>Level&#45;&gt;MemberLocation</title>
<path fill="none" stroke="#98548f" d="M285.976,-625.314C301.008,-590.097 320.103,-545.358 335.814,-508.549"/>
<ellipse fill="none" stroke="#98548f" cx="284.338" cy="-629.151" rx="4.00002" ry="4.00002"/>
<polygon fill="#98548f" stroke="#98548f" points="336.014,-508.081 344.079,-500.65 337.977,-503.482 339.94,-498.883 339.94,-498.883 339.94,-498.883 337.977,-503.482 335.801,-497.117 336.014,-508.081 336.014,-508.081"/>
</g>
<!-- MemberType -->
<g id="node9" class="node"><title>MemberType</title>
<path fill="none" stroke="black" d="M402,-640.5C402,-640.5 509,-640.5 509,-640.5 515,-640.5 521,-646.5 521,-652.5 521,-652.5 521,-719.5 521,-719.5 521,-725.5 515,-731.5 509,-731.5 509,-731.5 402,-731.5 402,-731.5 396,-731.5 390,-725.5 390,-719.5 390,-719.5 390,-652.5 390,-652.5 390,-646.5 396,-640.5 402,-640.5"/>
<text text-anchor="middle" x="455.5" y="-716.3" font-family="Times,serif" font-size="14.00">MemberType</text>
<polyline fill="none" stroke="black" points="390,-708.5 521,-708.5 "/>
<text text-anchor="start" x="398" y="-693.3" font-family="Times,serif" font-size="14.00">id :bigint(20)</text>
<text text-anchor="start" x="398" y="-678.3" font-family="Times,serif" font-size="14.00">name :varchar(255)</text>
<text text-anchor="start" x="398" y="-663.3" font-family="Times,serif" font-size="14.00">created_at :datetime</text>
<text text-anchor="start" x="398" y="-648.3" font-family="Times,serif" font-size="14.00">updated_at :datetime</text>
</g>
<!-- MemberType&#45;&gt;Member -->
<g id="edge17" class="edge"><title>MemberType&#45;&gt;Member</title>
<path fill="none" stroke="#e547d1" d="M463.239,-632.253C477.275,-536.925 508.025,-329.625 535.5,-155 536.298,-149.929 537.132,-144.692 537.978,-139.421"/>
<ellipse fill="none" stroke="#e547d1" cx="462.637" cy="-636.342" rx="4.00001" ry="4.00001"/>
<polygon fill="#e547d1" stroke="#e547d1" points="538.021,-139.152 544.056,-129.997 538.817,-134.216 539.614,-129.28 539.614,-129.28 539.614,-129.28 538.817,-134.216 535.171,-128.563 538.021,-139.152 538.021,-139.152"/>
</g>
<!-- MemberType&#45;&gt;MemberLocation -->
<g id="edge18" class="edge"><title>MemberType&#45;&gt;MemberLocation</title>
<path fill="none" stroke="#9fd7bf" d="M436.408,-632.816C423.193,-596.693 405.455,-548.211 391.027,-508.773"/>
<ellipse fill="none" stroke="#9fd7bf" cx="437.827" cy="-636.695" rx="4.00001" ry="4.00001"/>
<polygon fill="#9fd7bf" stroke="#9fd7bf" points="390.871,-508.346 391.661,-497.409 389.153,-503.65 387.435,-498.955 387.435,-498.955 387.435,-498.955 389.153,-503.65 383.209,-500.501 390.871,-508.346 390.871,-508.346"/>
</g>
<!-- ApplicationRecord -->
<g id="node11" class="node"><title>ApplicationRecord</title>
<ellipse fill="none" stroke="black" cx="549.5" cy="-883" rx="77.1866" ry="18"/>
<text text-anchor="middle" x="549.5" y="-879.3" font-family="Times,serif" font-size="14.00">ApplicationRecord</text>
</g>
<!-- ApplicationRecord&#45;&gt;FixNumber -->
<g id="edge1" class="edge"><title>ApplicationRecord&#45;&gt;FixNumber</title>
<path fill="none" stroke="black" d="M520.572,-866.085C504.306,-857.949 483.337,-848.777 463.5,-844 394.687,-827.43 205.747,-863.149 145.5,-826 111.491,-805.029 90.4719,-763.893 78.5663,-731.788"/>
</g>
<!-- ApplicationRecord&#45;&gt;ActionInformation -->
<g id="edge2" class="edge"><title>ApplicationRecord&#45;&gt;ActionInformation</title>
<path fill="none" stroke="black" d="M519.639,-866.264C503.445,-858.389 482.836,-849.405 463.5,-844 401.993,-826.806 220.652,-854.978 178.5,-807 141.598,-764.998 157.952,-608.454 171.995,-513.596"/>
</g>
<!-- ApplicationRecord&#45;&gt;Fix -->
<g id="edge4" class="edge"><title>ApplicationRecord&#45;&gt;Fix</title>
<path fill="none" stroke="black" d="M620.807,-875.848C707.209,-866.745 845.154,-846.35 876.5,-807 942.288,-724.415 921.059,-595.11 897.741,-513.813"/>
</g>
<!-- ApplicationRecord&#45;&gt;Member -->
<g id="edge5" class="edge"><title>ApplicationRecord&#45;&gt;Member</title>
<path fill="none" stroke="black" d="M549.5,-864.784C549.5,-830.797 549.5,-752.677 549.5,-687 549.5,-687 549.5,-687 549.5,-255.5 549.5,-213.359 549.5,-165.848 549.5,-129.393"/>
</g>
<!-- ApplicationRecord&#45;&gt;User -->
<g id="edge8" class="edge"><title>ApplicationRecord&#45;&gt;User</title>
<path fill="none" stroke="black" d="M579.792,-866.166C598.011,-855.93 621.148,-841.633 639.5,-826 646.685,-819.88 653.821,-813.324 660.823,-806.515"/>
</g>
<!-- ApplicationRecord&#45;&gt;PromotionForm -->
<g id="edge12" class="edge"><title>ApplicationRecord&#45;&gt;PromotionForm</title>
<path fill="none" stroke="black" d="M554.472,-864.987C557.515,-853.961 561.245,-839.238 563.5,-826 580.886,-723.917 556.814,-452.855 606.5,-362 622.071,-333.528 649.001,-310.23 674.654,-292.916"/>
</g>
<!-- ApplicationRecord&#45;&gt;Level -->
<g id="edge16" class="edge"><title>ApplicationRecord&#45;&gt;Level</title>
<path fill="none" stroke="black" d="M519.187,-866.267C503.038,-858.492 482.611,-849.599 463.5,-844 413.432,-829.331 391.062,-854.712 347.5,-826 316.242,-805.398 294.141,-769.285 280.037,-739.032"/>
</g>
<!-- ApplicationRecord&#45;&gt;MemberType -->
<g id="edge19" class="edge"><title>ApplicationRecord&#45;&gt;MemberType</title>
<path fill="none" stroke="black" d="M541.323,-865.036C527.118,-835.57 497.452,-774.028 477.009,-731.62"/>
</g>
<!-- ApplicationRecord&#45;&gt;Interlink -->
<g id="edge20" class="edge"><title>ApplicationRecord&#45;&gt;Interlink</title>
<path fill="none" stroke="black" d="M621.256,-876.062C714.802,-866.865 871.354,-846.027 912.5,-807 955.066,-766.626 967.5,-745.668 967.5,-687 967.5,-687 967.5,-687 967.5,-255.5 967.5,-206.808 935.442,-164.992 899.502,-133.411"/>
</g>
<!-- ApplicationRecord&#45;&gt;MemberLocation -->
<g id="edge21" class="edge"><title>ApplicationRecord&#45;&gt;MemberLocation</title>
<path fill="none" stroke="black" d="M515.227,-866.832C466.243,-845.135 382.009,-807.749 381.5,-807 348.462,-758.416 354.608,-589.983 360.709,-498.781"/>
</g>
<!-- ApplicationRecord&#45;&gt;Role -->
<g id="edge22" class="edge"><title>ApplicationRecord&#45;&gt;Role</title>
<path fill="none" stroke="black" d="M569.893,-865.436C581.024,-855.248 594.024,-841.248 601.5,-826 653.253,-720.44 610.797,-677.629 644.5,-565 651.157,-542.755 660.809,-519.277 670.231,-498.695"/>
</g>
</g>
</svg>
