<?xml version="1.0" encoding="UTF-8" standalone="no"?>
<!DOCTYPE svg PUBLIC "-//W3C//DTD SVG 1.1//EN"
 "http://www.w3.org/Graphics/SVG/1.1/DTD/svg11.dtd">
<!-- Generated by graphviz version 2.38.0 (20140413.2041)
 -->
<!-- Title: models_diagram Pages: 1 -->
<svg width="675pt" height="406pt"
 viewBox="0.00 0.00 675.00 406.00" xmlns="http://www.w3.org/2000/svg" xmlns:xlink="http://www.w3.org/1999/xlink">
<g id="graph0" class="graph" transform="scale(1 1) rotate(0) translate(4 402)">
<title>models_diagram</title>
<polygon fill="none" stroke="none" points="-4,4 -4,-402 670.995,-402 670.995,4 -4,4"/>
<!-- _diagram_info -->
<g id="node1" class="node"><title>_diagram_info</title>
<text text-anchor="start" x="141.995" y="-383.6" font-family="Times,serif" font-size="13.00">Models diagram</text>
<text text-anchor="start" x="141.995" y="-369.6" font-family="Times,serif" font-size="13.00">Date: May 22 2018 &#45; 17:02</text>
<text text-anchor="start" x="141.995" y="-355.6" font-family="Times,serif" font-size="13.00">Migration version: 20180522125157</text>
<text text-anchor="start" x="141.995" y="-341.6" font-family="Times,serif" font-size="13.00">Generated by RailRoady 1.5.3</text>
<text text-anchor="start" x="141.995" y="-327.6" font-family="Times,serif" font-size="13.00">http://railroady.prestonlee.com</text>
</g>
<!-- FixNumber -->
<g id="node2" class="node"><title>FixNumber</title>
<ellipse fill="none" stroke="black" cx="51.9954" cy="-265" rx="51.9908" ry="18"/>
<text text-anchor="middle" x="51.9954" y="-261.3" font-family="Times,serif" font-size="14.00">FixNumber</text>
</g>
<!-- ActionInformation -->
<g id="node3" class="node"><title>ActionInformation</title>
<ellipse fill="none" stroke="black" cx="132.995" cy="-178" rx="77.1866" ry="18"/>
<text text-anchor="middle" x="132.995" y="-174.3" font-family="Times,serif" font-size="14.00">ActionInformation</text>
</g>
<!-- Fix -->
<g id="node4" class="node"><title>Fix</title>
<ellipse fill="none" stroke="black" cx="607.995" cy="-178" rx="27" ry="18"/>
<text text-anchor="middle" x="607.995" y="-174.3" font-family="Times,serif" font-size="14.00">Fix</text>
</g>
<!-- PromotionForm -->
<g id="node7" class="node"><title>PromotionForm</title>
<ellipse fill="none" stroke="black" cx="553.995" cy="-105" rx="67.6881" ry="18"/>
<text text-anchor="middle" x="553.995" y="-101.3" font-family="Times,serif" font-size="14.00">PromotionForm</text>
</g>
<!-- Fix&#45;&gt;PromotionForm -->
<g id="edge3" class="edge"><title>Fix&#45;&gt;PromotionForm</title>
<path fill="none" stroke="#c0cfd7" d="M591.327,-155.084C585.531,-147.463 578.987,-138.859 573.015,-131.008"/>
<ellipse fill="none" stroke="#c0cfd7" cx="593.857" cy="-158.41" rx="4.00002" ry="4.00002"/>
<polygon fill="#c0cfd7" stroke="#c0cfd7" points="572.876,-130.825 570.404,-120.141 569.849,-126.845 566.823,-122.865 566.823,-122.865 566.823,-122.865 569.849,-126.845 563.241,-125.59 572.876,-130.825 572.876,-130.825"/>
</g>
<!-- Member -->
<g id="node5" class="node"><title>Member</title>
<ellipse fill="none" stroke="black" cx="442.995" cy="-18" rx="41.6928" ry="18"/>
<text text-anchor="middle" x="442.995" y="-14.3" font-family="Times,serif" font-size="14.00">Member</text>
</g>
<!-- User -->
<g id="node6" class="node"><title>User</title>
<ellipse fill="none" stroke="black" cx="573.995" cy="-265" rx="27.0966" ry="18"/>
<text text-anchor="middle" x="573.995" y="-261.3" font-family="Times,serif" font-size="14.00">User</text>
</g>
<!-- User&#45;&gt;Fix -->
<g id="edge7" class="edge"><title>User&#45;&gt;Fix</title>
<path fill="none" stroke="#2636ee" d="M583.704,-239.728C588.045,-228.875 593.169,-216.066 597.589,-205.016"/>
<ellipse fill="none" stroke="#2636ee" cx="582.198" cy="-243.493" rx="4.00001" ry="4.00001"/>
<polygon fill="#2636ee" stroke="#2636ee" points="597.694,-204.754 605.586,-197.14 599.551,-200.112 601.408,-195.469 601.408,-195.469 601.408,-195.469 599.551,-200.112 597.23,-193.798 597.694,-204.754 597.694,-204.754"/>
</g>
<!-- Role -->
<g id="node13" class="node"><title>Role</title>
<ellipse fill="none" stroke="black" cx="535.995" cy="-178" rx="27.0966" ry="18"/>
<text text-anchor="middle" x="535.995" y="-174.3" font-family="Times,serif" font-size="14.00">Role</text>
</g>
<!-- User&#45;&gt;Role -->
<g id="edge6" class="edge"><title>User&#45;&gt;Role</title>
<path fill="none" stroke="#d63ff2" d="M562.437,-238.147C557.708,-227.568 552.248,-215.354 547.521,-204.782"/>
<polygon fill="#d63ff2" stroke="#d63ff2" points="562.587,-238.482 562.56,-249.448 564.628,-243.047 566.669,-247.611 566.669,-247.611 566.669,-247.611 564.628,-243.047 570.777,-245.775 562.587,-238.482 562.587,-238.482"/>
<polygon fill="#d63ff2" stroke="#d63ff2" points="547.511,-204.758 547.537,-193.792 545.47,-200.193 543.429,-195.629 543.429,-195.629 543.429,-195.629 545.47,-200.193 539.321,-197.465 547.511,-204.758 547.511,-204.758"/>
</g>
<!-- PromotionForm&#45;&gt;Member -->
<g id="edge9" class="edge"><title>PromotionForm&#45;&gt;Member</title>
<path fill="none" stroke="#e74aaf" d="M526.395,-82.8644C509.498,-69.9251 487.937,-53.415 470.972,-40.4233"/>
<ellipse fill="none" stroke="#e74aaf" cx="529.68" cy="-85.3801" rx="4.00002" ry="4.00002"/>
<polygon fill="#e74aaf" stroke="#e74aaf" points="470.507,-40.0675 465.303,-30.4149 466.537,-37.0276 462.568,-33.9877 462.568,-33.9877 462.568,-33.9877 466.537,-37.0276 459.832,-37.5605 470.507,-40.0675 470.507,-40.0675"/>
</g>
<!-- Interlink -->
<g id="node10" class="node"><title>Interlink</title>
<ellipse fill="none" stroke="black" cx="614.995" cy="-18" rx="40.8928" ry="18"/>
<text text-anchor="middle" x="614.995" y="-14.3" font-family="Times,serif" font-size="14.00">Interlink</text>
</g>
<!-- PromotionForm&#45;&gt;Interlink -->
<g id="edge10" class="edge"><title>PromotionForm&#45;&gt;Interlink</title>
<path fill="none" stroke="#f16c04" d="M581.577,-81.9971C585.717,-77.9493 589.696,-73.554 592.995,-69 598.138,-61.9019 602.434,-53.4121 605.826,-45.4606"/>
<ellipse fill="none" stroke="#f16c04" cx="578.396" cy="-84.9406" rx="4.00002" ry="4.00002"/>
<polygon fill="#f16c04" stroke="#f16c04" points="605.828,-45.4557 613.694,-37.8151 607.669,-40.807 609.51,-36.1582 609.51,-36.1582 609.51,-36.1582 607.669,-40.807 605.326,-34.5013 605.828,-45.4557 605.828,-45.4557"/>
<text text-anchor="middle" x="611.995" y="-57.8" font-family="Times,serif" font-size="14.00">first</text>
</g>
<!-- PromotionForm&#45;&gt;Interlink -->
<g id="edge11" class="edge"><title>PromotionForm&#45;&gt;Interlink</title>
<path fill="none" stroke="#b0769b" d="M546.997,-78.6208C546.076,-70.2838 546.671,-61.2932 550.995,-54 556.178,-45.2581 564.401,-38.5576 573.248,-33.4776"/>
<ellipse fill="none" stroke="#b0769b" cx="547.68" cy="-82.7078" rx="4.00001" ry="4.00001"/>
<polygon fill="#b0769b" stroke="#b0769b" points="573.299,-33.4519 584.253,-32.9342 577.757,-31.1871 582.214,-28.9223 582.214,-28.9223 582.214,-28.9223 577.757,-31.1871 580.176,-24.9104 573.299,-33.4519 573.299,-33.4519"/>
<text text-anchor="middle" x="569.995" y="-57.8" font-family="Times,serif" font-size="14.00">second</text>
</g>
<!-- Level -->
<g id="node8" class="node"><title>Level</title>
<ellipse fill="none" stroke="black" cx="207.995" cy="-265" rx="30.5947" ry="18"/>
<text text-anchor="middle" x="207.995" y="-261.3" font-family="Times,serif" font-size="14.00">Level</text>
</g>
<!-- Level&#45;&gt;ActionInformation -->
<g id="edge13" class="edge"><title>Level&#45;&gt;ActionInformation</title>
<path fill="none" stroke="#ec4f19" d="M183.086,-245.288C177.175,-240.308 171.107,-234.715 165.995,-229 159.376,-221.599 153.104,-212.764 147.841,-204.595"/>
<ellipse fill="none" stroke="#ec4f19" cx="186.287" cy="-247.898" rx="4.00002" ry="4.00002"/>
<polygon fill="#ec4f19" stroke="#ec4f19" points="147.835,-204.584 146.38,-193.715 145.196,-200.337 142.558,-196.09 142.558,-196.09 142.558,-196.09 145.196,-200.337 138.735,-198.465 147.835,-204.584 147.835,-204.584"/>
<text text-anchor="middle" x="179.995" y="-217.8" font-family="Times,serif" font-size="14.00">from</text>
</g>
<!-- Level&#45;&gt;ActionInformation -->
<g id="edge14" class="edge"><title>Level&#45;&gt;ActionInformation</title>
<path fill="none" stroke="#03dd11" d="M204.906,-238.86C202.882,-230.304 199.534,-221.116 193.995,-214 189.712,-208.498 184.304,-203.708 178.487,-199.588"/>
<ellipse fill="none" stroke="#03dd11" cx="205.694" cy="-242.856" rx="4.00001" ry="4.00001"/>
<polygon fill="#03dd11" stroke="#03dd11" points="178.187,-199.397 172.171,-190.229 173.97,-196.711 169.753,-194.025 169.753,-194.025 169.753,-194.025 173.97,-196.711 167.335,-197.82 178.187,-199.397 178.187,-199.397"/>
<text text-anchor="middle" x="207.495" y="-217.8" font-family="Times,serif" font-size="14.00">to</text>
</g>
<!-- MemberLocation -->
<g id="node12" class="node"><title>MemberLocation</title>
<ellipse fill="none" stroke="black" cx="300.995" cy="-178" rx="72.5877" ry="18"/>
<text text-anchor="middle" x="300.995" y="-174.3" font-family="Times,serif" font-size="14.00">MemberLocation</text>
</g>
<!-- Level&#45;&gt;MemberLocation -->
<g id="edge15" class="edge"><title>Level&#45;&gt;MemberLocation</title>
<path fill="none" stroke="#37bf26" d="M227.314,-242.531C235.824,-233.434 246.117,-222.901 255.995,-214 260.517,-209.925 265.464,-205.788 270.369,-201.854"/>
<ellipse fill="none" stroke="#37bf26" cx="224.451" cy="-245.626" rx="4.00002" ry="4.00002"/>
<polygon fill="#37bf26" stroke="#37bf26" points="270.637,-201.644 281.283,-199.013 274.571,-198.558 278.505,-195.472 278.505,-195.472 278.505,-195.472 274.571,-198.558 275.728,-191.932 270.637,-201.644 270.637,-201.644"/>
</g>
<!-- MemberType -->
<g id="node9" class="node"><title>MemberType</title>
<ellipse fill="none" stroke="black" cx="354.995" cy="-265" rx="59.5901" ry="18"/>
<text text-anchor="middle" x="354.995" y="-261.3" font-family="Times,serif" font-size="14.00">MemberType</text>
</g>
<!-- MemberType&#45;&gt;Member -->
<g id="edge17" class="edge"><title>MemberType&#45;&gt;Member</title>
<path fill="none" stroke="#be61c9" d="M365.601,-239.545C371.044,-226.68 377.638,-210.589 382.995,-196 405.864,-133.726 406.441,-116.388 428.995,-54 429.997,-51.2304 431.078,-48.353 432.182,-45.4914"/>
<ellipse fill="none" stroke="#be61c9" cx="363.951" cy="-243.417" rx="4.00002" ry="4.00002"/>
<polygon fill="#be61c9" stroke="#be61c9" points="432.256,-45.3031 440.114,-37.6543 434.092,-40.6525 435.928,-36.0018 435.928,-36.0018 435.928,-36.0018 434.092,-40.6525 431.743,-34.3493 432.256,-45.3031 432.256,-45.3031"/>
</g>
<!-- MemberType&#45;&gt;MemberLocation -->
<g id="edge18" class="edge"><title>MemberType&#45;&gt;MemberLocation</title>
<path fill="none" stroke="#0400ea" d="M339.886,-240.217C332.846,-229.135 324.458,-215.932 317.278,-204.63"/>
<ellipse fill="none" stroke="#0400ea" cx="342.182" cy="-243.83" rx="4.00002" ry="4.00002"/>
<polygon fill="#0400ea" stroke="#0400ea" points="317.189,-204.49 315.625,-193.636 314.508,-200.27 311.827,-196.049 311.827,-196.049 311.827,-196.049 314.508,-200.27 308.028,-198.462 317.189,-204.49 317.189,-204.49"/>
</g>
<!-- ApplicationRecord -->
<g id="node11" class="node"><title>ApplicationRecord</title>
<ellipse fill="none" stroke="black" cx="442.995" cy="-359" rx="77.1866" ry="18"/>
<text text-anchor="middle" x="442.995" y="-355.3" font-family="Times,serif" font-size="14.00">ApplicationRecord</text>
</g>
<!-- ApplicationRecord&#45;&gt;FixNumber -->
<g id="edge1" class="edge"><title>ApplicationRecord&#45;&gt;FixNumber</title>
<path fill="none" stroke="black" d="M414.032,-342.23C397.755,-334.138 376.787,-324.961 356.995,-320 253.669,-294.098 220.154,-332.181 117.995,-302 102.599,-297.451 86.7617,-288.963 74.4611,-281.371"/>
</g>
<!-- ApplicationRecord&#45;&gt;ActionInformation -->
<g id="edge2" class="edge"><title>ApplicationRecord&#45;&gt;ActionInformation</title>
<path fill="none" stroke="black" d="M412.663,-342.332C396.509,-334.574 376.083,-325.678 356.995,-320 274.954,-295.595 231.141,-340.784 167.995,-283 143.119,-260.236 135.911,-219.234 133.831,-196.096"/>
</g>
<!-- ApplicationRecord&#45;&gt;Fix -->
<g id="edge4" class="edge"><title>ApplicationRecord&#45;&gt;Fix</title>
<path fill="none" stroke="black" d="M504.03,-347.716C541.518,-337.909 586.685,-319.022 609.995,-283 627.165,-256.468 619.926,-217.611 613.626,-195.678"/>
</g>
<!-- ApplicationRecord&#45;&gt;Member -->
<g id="edge5" class="edge"><title>ApplicationRecord&#45;&gt;Member</title>
<path fill="none" stroke="black" d="M442.995,-340.705C442.995,-322.214 442.995,-292.035 442.995,-266 442.995,-266 442.995,-266 442.995,-104 442.995,-80.5365 442.995,-53.4297 442.995,-36.2564"/>
</g>
<!-- ApplicationRecord&#45;&gt;User -->
<g id="edge8" class="edge"><title>ApplicationRecord&#45;&gt;User</title>
<path fill="none" stroke="black" d="M471.343,-341.982C489.464,-331.353 513.195,-316.699 532.995,-302 541.97,-295.338 551.383,-287.168 558.922,-280.297"/>
</g>
<!-- ApplicationRecord&#45;&gt;PromotionForm -->
<g id="edge12" class="edge"><title>ApplicationRecord&#45;&gt;PromotionForm</title>
<path fill="none" stroke="black" d="M447.427,-340.767C459.128,-295.561 490.592,-175.945 499.995,-160 508.549,-145.496 521.906,-132.093 533.195,-122.268"/>
</g>
<!-- ApplicationRecord&#45;&gt;Level -->
<g id="edge16" class="edge"><title>ApplicationRecord&#45;&gt;Level</title>
<path fill="none" stroke="black" d="M412.642,-342.404C396.482,-334.666 376.057,-325.766 356.995,-320 312.095,-306.419 295.769,-321.259 252.995,-302 241.866,-296.989 231.124,-288.578 222.928,-281.146"/>
</g>
<!-- ApplicationRecord&#45;&gt;MemberType -->
<g id="edge19" class="edge"><title>ApplicationRecord&#45;&gt;MemberType</title>
<path fill="none" stroke="black" d="M426.855,-341.126C410.878,-324.422 386.575,-299.015 370.738,-282.458"/>
</g>
<!-- ApplicationRecord&#45;&gt;Interlink -->
<g id="edge20" class="edge"><title>ApplicationRecord&#45;&gt;Interlink</title>
<path fill="none" stroke="black" d="M519.77,-356.795C584.614,-351.209 666.995,-331.269 666.995,-266 666.995,-266 666.995,-266 666.995,-104 666.995,-76.494 646.936,-50.3662 631.735,-34.5153"/>
</g>
<!-- ApplicationRecord&#45;&gt;MemberLocation -->
<g id="edge21" class="edge"><title>ApplicationRecord&#45;&gt;MemberLocation</title>
<path fill="none" stroke="black" d="M408.77,-342.768C363.665,-322.533 289.57,-288.669 285.995,-283 269.066,-256.15 282.079,-217.754 292.153,-195.911"/>
</g>
<!-- ApplicationRecord&#45;&gt;Role -->
<g id="edge22" class="edge"><title>ApplicationRecord&#45;&gt;Role</title>
<path fill="none" stroke="black" d="M461.995,-341.439C472.929,-331.046 486.201,-316.837 494.995,-302 515.54,-267.34 527.399,-221.014 532.675,-196.282"/>
</g>
</g>
</svg>
